<svg id="svg" version="1.1" width="400" height="352.3454951600894" viewBox="0 0 400 352.3454951600894" xmlns="http://www.w3.org/2000/svg" xmlns:xlink="http://www.w3.org/1999/xlink" ><g id="svgg"><path id="path0" d="M177.662 0.347 C 153.071 3.123,135.350 18.690,139.068 34.252 C 141.428 44.128,152.629 52.839,166.676 55.723 L 168.498 56.097 170.152 59.098 C 180.441 77.774,184.734 95.654,183.073 112.925 L 182.826 115.501 180.393 115.849 C 141.197 121.456,108.578 150.425,99.472 187.716 C 98.402 192.098,98.832 191.628,95.084 192.520 C 79.822 196.153,67.321 195.376,58.156 190.225 C 56.217 189.135,55.984 188.907,55.844 187.954 C 52.575 165.594,41.779 151.312,28.146 151.312 C 4.780 151.312,-8.378 195.097,5.965 225.122 C 18.098 250.521,42.626 247.892,52.530 220.130 L 53.530 217.326 55.879 215.861 C 69.329 207.475,84.098 204.408,94.781 207.783 L 97.096 208.514 97.096 211.002 C 97.096 246.990,124.302 283.481,160.419 295.937 L 162.778 296.751 165.430 306.830 C 168.534 318.630,168.409 316.758,166.408 321.452 L 164.787 325.257 162.267 320.707 C 155.704 308.855,152.041 304.201,148.496 303.208 C 143.060 301.686,145.414 307.072,154.868 317.785 C 157.503 320.770,157.808 321.226,157.301 321.413 C 156.665 321.648,155.473 321.430,155.473 321.079 C 155.473 319.406,151.575 317.486,150.378 318.569 C 149.981 318.928,149.139 319.055,146.930 319.090 C 141.302 319.179,138.949 321.971,138.575 329.006 C 137.384 351.355,153.929 358.389,180.614 346.877 L 184.214 345.324 184.292 331.224 L 184.369 317.125 185.991 315.372 C 188.631 312.522,188.563 310.584,185.777 309.201 L 184.363 308.500 184.363 305.064 L 184.363 301.629 186.076 301.824 C 193.327 302.648,207.700 302.190,213.477 300.951 L 214.147 300.808 214.147 319.424 L 214.147 338.041 215.951 338.951 C 218.022 339.996,218.000 339.520,216.189 344.200 C 213.770 350.449,211.978 351.532,210.121 347.868 C 209.273 346.193,208.687 345.793,207.085 345.793 C 205.850 345.793,202.075 347.437,201.378 348.278 C 200.785 348.994,201.135 348.889,202.745 347.866 C 206.227 345.653,208.294 345.735,209.510 348.135 C 211.935 352.919,214.820 350.964,217.855 342.481 L 218.667 340.211 221.247 341.228 C 238.798 348.148,252.534 346.246,257.453 336.216 C 259.853 331.323,260.808 321.544,259.307 317.234 C 256.727 309.824,247.826 310.301,235.280 318.521 L 232.377 320.423 231.718 317.573 C 231.356 316.005,230.827 314.040,230.543 313.206 L 230.027 311.690 232.178 303.560 C 233.362 299.088,234.379 295.390,234.440 295.343 C 234.500 295.295,235.421 294.911,236.485 294.489 C 268.090 281.973,290.666 253.356,295.519 219.657 C 296.017 216.197,296.030 200.586,295.537 197.468 L 295.184 195.235 297.182 193.203 C 308.734 181.458,326.127 179.875,348.800 188.503 C 349.985 188.954,350.573 189.370,350.833 189.941 C 352.468 193.529,357.555 199.866,361.036 202.652 C 383.272 220.442,405.110 193.661,398.785 156.360 C 393.110 122.897,367.374 106.152,351.658 125.698 C 346.896 131.621,342.857 143.535,342.820 151.770 C 342.811 153.669,340.276 157.703,337.007 161.022 C 328.489 169.667,314.802 173.939,295.619 173.939 L 289.290 173.939 287.990 171.061 C 274.670 141.580,243.641 119.410,210.243 115.514 L 207.084 115.145 205.568 112.428 C 196.948 96.974,196.045 77.806,202.992 57.781 C 204.602 53.142,204.522 53.275,206.012 52.746 C 215.576 49.351,224.494 41.460,227.307 33.902 C 234.660 14.149,209.005 -3.191,177.662 0.347 M196.873 2.090 C 228.075 7.526,237.428 31.715,214.225 46.968 C 186.899 64.932,140.244 54.297,140.149 30.082 C 140.092 15.730,156.664 3.805,180.045 1.375 C 183.292 1.037,193.261 1.461,196.873 2.090 M201.535 57.827 C 194.944 77.430,195.585 95.709,203.409 111.210 L 205.379 115.115 197.031 115.115 C 192.439 115.115,187.643 115.214,186.372 115.335 L 184.062 115.555 184.287 113.399 C 186.096 96.077,181.315 75.675,171.436 58.563 L 170.082 56.217 171.638 56.425 C 181.266 57.708,194.987 56.588,201.973 53.948 C 202.987 53.565,202.997 53.476,201.535 57.827 M209.382 116.729 C 288.006 126.965,322.598 215.836,269.255 270.549 C 214.635 326.570,116.325 301.009,100.238 226.604 C 86.916 164.985,143.386 108.136,209.382 116.729 M370.514 118.965 C 393.419 123.863,406.649 167.596,393.165 193.836 C 379.817 219.808,351.376 204.892,345.004 168.578 C 340.101 140.634,353.152 115.252,370.514 118.965 M33.358 153.373 C 55.112 160.689,62.556 206.103,45.950 230.197 C 29.488 254.084,4.095 237.649,1.464 201.404 C -0.629 172.569,15.995 147.533,33.358 153.373 M343.850 168.403 C 344.795 174.207,346.686 180.520,349.200 186.265 C 349.685 187.374,349.684 187.412,349.164 187.195 C 328.248 178.458,306.637 180.565,295.962 192.381 C 294.693 193.786,294.566 193.835,294.561 192.926 C 294.554 191.559,292.742 184.460,291.294 180.125 C 290.472 177.662,289.799 175.565,289.799 175.464 C 289.799 175.362,292.714 175.264,296.277 175.246 C 318.037 175.134,334.213 168.965,341.339 158.059 L 342.666 156.029 343.013 160.714 C 343.204 163.291,343.581 166.751,343.850 168.403 M237.613 166.636 C 209.988 171.161,199.164 206.088,219.192 226.075 C 235.688 242.537,263.212 237.607,273.251 216.392 C 285.150 191.250,264.379 162.251,237.613 166.636 M250.567 168.388 C 274.353 174.554,283.459 204.078,267.459 223.157 C 250.991 242.795,220.024 236.465,211.750 211.769 C 203.454 187.006,225.847 161.981,250.567 168.388 M145.495 172.184 C 122.734 175.464,109.710 201.116,120.021 222.358 C 132.547 248.162,168.376 247.814,180.819 221.766 C 192.612 197.080,172.139 168.345,145.495 172.184 M157.747 173.905 C 180.491 179.579,190.495 207.288,176.752 226.546 C 159.989 250.038,124.048 242.038,118.237 213.522 C 113.383 189.704,134.839 168.190,157.747 173.905 M228.962 183.458 C 227.867 183.670,227.109 184.066,227.798 184.066 C 228.499 184.066,230.509 186.227,230.998 187.507 C 233.121 193.067,226.326 197.716,221.909 193.726 C 220.873 192.790,220.578 192.297,219.958 190.469 C 219.366 188.721,217.583 194.655,217.632 198.213 C 217.802 210.778,232.367 217.042,241.126 208.319 C 251.045 198.441,242.435 180.845,228.962 183.458 M157.409 189.327 C 155.511 189.906,155.554 189.828,156.523 190.978 C 161.142 196.456,154.320 204.460,148.759 200.086 C 147.761 199.301,147.735 199.348,147.531 202.270 C 146.609 215.422,161.733 222.902,170.970 213.864 C 181.548 203.513,171.355 185.069,157.409 189.327 M63.440 194.011 C 71.630 196.736,84.227 196.634,95.581 193.751 C 98.968 192.891,98.626 192.611,98.125 195.833 C 97.896 197.306,97.617 200.421,97.505 202.755 C 97.393 205.089,97.267 206.999,97.225 206.999 C 97.183 206.999,95.897 206.668,94.368 206.263 C 83.038 203.266,70.330 205.913,55.771 214.301 C 54.747 214.891,53.909 215.326,53.909 215.268 C 53.909 215.210,54.171 213.962,54.491 212.495 C 55.562 207.587,55.994 203.047,55.994 196.701 L 55.994 190.603 58.153 191.786 C 59.341 192.437,61.720 193.438,63.440 194.011 M232.540 296.575 C 232.462 296.862,231.682 299.810,230.808 303.127 C 229.934 306.445,229.140 309.159,229.044 309.159 C 228.948 309.159,228.430 308.267,227.892 307.177 C 225.545 302.418,223.653 301.299,221.601 303.456 C 217.391 307.882,218.500 313.679,224.465 318.425 C 226.707 320.209,226.736 320.696,224.731 322.864 C 222.449 325.332,221.165 328.107,219.372 334.445 C 218.129 338.837,218.360 338.533,216.857 337.766 L 215.637 337.144 215.637 318.838 L 215.637 300.533 216.307 300.397 C 220.176 299.613,225.662 298.195,228.444 297.260 C 232.438 295.918,232.734 295.869,232.540 296.575 M169.173 298.591 C 171.057 299.116,174.609 299.910,177.066 300.355 C 179.523 300.800,181.835 301.223,182.204 301.295 C 182.853 301.422,182.874 301.534,182.874 304.920 L 182.874 308.414 180.142 308.308 C 175.772 308.138,173.151 309.668,170.314 314.045 C 169.687 315.012,169.173 315.701,169.173 315.576 C 169.173 315.371,164.913 299.054,164.515 297.737 C 164.375 297.273,164.459 297.221,165.049 297.410 C 165.434 297.534,167.290 298.065,169.173 298.591 M224.839 304.851 C 225.831 305.980,226.889 307.917,227.860 310.379 L 228.463 311.909 227.637 315.150 C 226.661 318.979,226.946 318.868,224.328 316.444 C 220.642 313.031,219.594 309.833,221.114 306.627 C 222.519 303.662,223.419 303.233,224.839 304.851 M149.228 305.149 C 150.867 305.983,153.870 309.709,157.046 314.855 C 159.164 318.284,161.695 322.875,161.214 322.413 C 158.349 319.658,149.921 309.523,148.414 307.019 C 146.710 304.189,146.823 303.928,149.228 305.149 M181.053 309.649 L 182.893 309.841 182.809 313.148 L 182.725 316.456 180.045 318.277 C 177.111 320.271,171.548 323.546,171.380 323.378 C 171.322 323.320,170.928 321.971,170.505 320.379 L 169.734 317.484 170.853 315.630 C 173.851 310.659,176.403 309.163,181.053 309.649 M185.386 310.693 C 186.430 311.168,186.605 311.973,185.887 312.983 C 184.553 314.855,184.363 314.792,184.363 312.471 C 184.363 311.305,184.424 310.350,184.498 310.350 C 184.572 310.350,184.972 310.504,185.386 310.693 M254.536 313.897 C 257.878 315.414,259.182 319.474,258.534 326.343 C 257.044 342.141,246.307 347.457,227.401 341.758 C 222.226 340.198,219.211 338.963,219.211 338.406 C 219.211 336.587,222.485 327.856,223.985 325.676 C 225.144 323.992,225.266 324.072,224.713 326.149 C 224.476 327.043,224.279 327.941,224.278 328.146 C 224.276 328.350,225.715 327.370,227.476 325.968 C 239.643 316.281,249.804 311.748,254.536 313.897 M230.024 317.349 C 230.957 321.115,230.957 320.858,230.016 320.362 C 228.045 319.324,228.063 319.367,228.639 316.965 C 229.206 314.604,229.353 314.644,230.024 317.349 M182.874 331.196 L 182.874 344.298 180.864 345.210 C 162.614 353.486,147.840 352.610,142.610 342.941 C 139.553 337.291,139.053 326.576,141.669 322.795 C 143.597 320.009,148.348 319.698,153.712 322.006 C 155.467 322.761,155.449 322.488,153.889 324.569 C 152.638 326.237,150.918 328.968,151.495 328.369 C 151.653 328.206,152.550 327.112,153.490 325.940 C 155.787 323.072,155.669 323.058,157.831 326.464 C 159.733 329.460,160.242 329.942,160.234 328.742 C 160.230 328.260,160.158 328.183,159.977 328.470 C 159.799 328.750,159.315 328.110,158.343 326.313 C 156.678 323.234,156.679 323.239,158.079 324.067 C 161.996 326.386,164.110 327.814,164.110 328.141 C 164.110 328.349,164.295 328.518,164.521 328.518 C 164.747 328.518,165.503 329.259,166.201 330.164 C 167.572 331.941,168.027 332.130,167.232 330.593 L 166.736 329.633 168.082 330.600 C 168.822 331.131,170.543 332.477,171.907 333.590 C 173.270 334.704,174.414 335.587,174.448 335.553 C 174.483 335.519,173.913 333.242,173.182 330.492 C 172.452 327.741,171.854 325.335,171.854 325.143 C 171.854 324.952,173.102 324.093,174.628 323.235 C 176.153 322.377,178.599 320.875,180.063 319.898 C 181.527 318.921,182.759 318.115,182.800 318.108 C 182.841 318.100,182.874 323.990,182.874 331.196 M169.461 322.080 L 170.028 324.062 168.261 324.954 C 167.288 325.445,166.493 325.707,166.493 325.537 C 166.493 325.095,168.658 319.861,168.787 319.991 C 168.846 320.050,169.150 320.990,169.461 322.080 M229.471 322.508 C 229.316 322.643,228.612 323.196,227.908 323.737 L 226.627 324.720 226.826 323.864 C 226.936 323.393,227.237 322.841,227.494 322.636 C 228.003 322.231,229.936 322.106,229.471 322.508 M171.168 328.538 C 172.058 331.807,172.093 331.785,169.323 329.710 C 166.405 327.525,166.438 327.627,168.351 326.665 C 170.398 325.635,170.372 325.617,171.168 328.538 " stroke="none" fill="#18100a" fill-rule="evenodd"></path><path id="path1" d="M239.017 158.656 C 222.969 160.739,210.017 171.061,204.611 186.076 L 203.941 187.937 195.389 187.937 L 186.837 187.937 186.270 186.672 C 180.450 173.665,165.167 164.302,149.814 164.336 C 116.863 164.409,97.558 202.464,116.208 230.579 C 133.378 256.462,172.065 254.076,186.176 226.263 L 187.789 223.085 197.963 223.084 L 208.138 223.083 209.400 224.944 C 229.477 254.556,274.426 246.299,283.243 211.380 C 290.422 182.951,266.997 155.026,239.017 158.656 M249.144 161.927 C 279.913 167.702,291.860 207.367,269.607 229.866 C 245.356 254.384,204.680 237.726,203.511 202.797 C 202.650 177.082,224.695 157.338,249.144 161.927 M156.849 167.251 C 189.645 172.959,201.150 215.308,175.944 237.538 C 154.589 256.371,121.101 246.080,113.048 218.209 C 104.953 190.191,128.858 162.380,156.849 167.251 M237.653 167.967 C 206.361 173.692,200.091 216.546,228.416 231.095 C 253.263 243.858,281.485 219.981,274.219 192.344 C 269.963 176.157,253.365 165.092,237.653 167.967 M145.495 173.540 C 116.032 178.188,107.555 218.516,132.613 234.826 C 158.678 251.793,191.066 225.771,181.075 195.889 C 176.022 180.778,160.685 171.144,145.495 173.540 M234.239 183.332 C 247.303 185.416,249.651 205.383,237.514 211.176 C 224.996 217.150,211.781 201.780,219.416 190.128 L 219.913 189.369 220.246 190.682 C 221.902 197.203,231.124 196.139,231.124 189.427 C 231.124 187.356,230.247 185.741,228.533 184.654 C 226.991 183.676,227.084 183.559,229.712 183.177 C 231.269 182.951,232.007 182.976,234.239 183.332 M165.345 189.118 C 178.915 193.312,178.816 213.326,165.204 217.472 C 155.330 220.479,145.308 210.792,147.518 200.376 L 147.754 199.264 148.986 200.079 C 154.679 203.846,161.269 195.561,156.256 190.938 C 155.165 189.933,155.232 189.822,157.334 189.156 C 159.792 188.378,162.901 188.363,165.345 189.118 M203.089 191.437 C 200.925 200.489,202.064 210.562,206.256 219.434 L 207.557 222.189 197.861 222.189 C 188.763 222.189,188.176 222.157,188.332 221.668 C 192.041 210.040,191.862 200.298,187.740 189.558 C 187.600 189.191,188.741 189.129,195.608 189.129 L 203.641 189.129 203.089 191.437 " stroke="none" fill="#f4f4f4" fill-rule="evenodd"></path><path id="path2" d="M182.576 1.378 C 147.511 3.633,128.223 28.047,147.903 45.268 C 169.851 64.474,219.359 55.933,226.535 31.702 C 231.402 15.273,208.814 -0.309,182.576 1.378 M213.859 32.752 C 203.225 45.452,185.503 47.285,166.046 37.695 C 161.876 35.640,156.781 32.661,155.781 31.695 C 155.405 31.331,159.444 31.273,185.221 31.273 L 215.096 31.273 213.859 32.752 M200.298 54.547 C 192.597 57.037,177.983 57.975,171.017 56.425 C 170.383 56.284,170.449 56.487,171.860 59.037 C 181.674 76.770,186.012 94.980,184.567 112.379 L 184.325 115.302 187.993 115.060 C 190.010 114.927,194.705 114.835,198.427 114.856 L 205.194 114.894 203.744 112.175 C 195.284 96.309,194.667 75.523,202.072 55.852 C 202.892 53.673,202.925 53.697,200.298 54.547 M186.895 116.487 C 122.694 122.449,81.898 184.837,105.035 241.674 C 133.859 312.483,237.081 321.731,279.834 257.334 C 322.772 192.659,267.566 108.996,186.895 116.487 M363.249 119.292 C 342.566 124.971,337.384 167.158,354.238 192.655 C 370.820 217.741,395.022 207.936,398.230 174.832 C 401.144 144.767,381.877 114.177,363.249 119.292 M370.040 165.101 C 372.460 182.436,374.379 196.681,374.304 196.756 C 373.927 197.133,367.968 189.858,365.374 185.853 C 356.438 172.056,355.008 155.647,361.428 140.571 C 362.716 137.547,365.225 133.072,365.467 133.369 C 365.562 133.486,367.620 147.765,370.040 165.101 M26.359 152.806 C 5.161 154.993,-5.916 196.253,7.183 224.234 C 18.845 249.144,42.278 246.050,51.530 218.378 C 61.743 187.831,47.462 150.628,26.359 152.806 M341.237 158.390 C 333.922 169.108,319.063 174.862,297.468 175.339 C 293.250 175.432,289.799 175.532,289.799 175.561 C 289.799 175.590,290.138 176.476,290.552 177.531 C 291.595 180.190,293.227 185.748,293.957 189.129 C 294.293 190.685,294.640 192.272,294.728 192.656 C 294.876 193.305,295.048 193.200,297.206 191.138 C 308.317 180.523,326.359 178.693,346.664 186.122 C 349.566 187.184,349.598 187.177,348.829 185.658 C 345.870 179.814,343.300 168.876,342.866 160.278 L 342.666 156.298 341.237 158.390 M251.413 159.054 C 278.768 164.629,292.991 195.658,279.800 220.980 C 265.389 248.642,226.679 251.069,209.452 225.391 L 208.103 223.380 197.946 223.388 L 187.789 223.397 186.901 225.383 C 180.466 239.777,164.490 249.559,148.474 248.912 C 117.934 247.679,99.249 214.212,113.634 186.507 C 128.862 157.180,170.054 156.586,185.904 185.465 L 187.098 187.640 195.512 187.640 L 203.927 187.640 204.297 186.374 C 209.802 167.583,231.507 154.998,251.413 159.054 M32.058 173.741 C 42.212 188.812,41.991 208.121,31.477 224.552 L 30.441 226.171 30.266 223.957 C 30.076 221.545,28.270 172.159,28.301 170.216 L 28.320 169.025 29.504 170.365 C 30.154 171.102,31.304 172.621,32.058 173.741 M56.226 194.899 C 56.399 199.992,55.927 205.794,54.918 210.978 C 54.037 215.508,53.944 215.288,56.157 213.942 C 69.296 205.951,84.462 203.005,95.222 206.353 L 97.025 206.915 97.230 203.606 C 97.343 201.787,97.632 198.772,97.871 196.907 C 98.391 192.856,98.588 193.134,95.716 193.864 C 80.857 197.644,65.097 196.634,57.180 191.394 L 56.082 190.668 56.226 194.899 " stroke="none" fill="#ab0414" fill-rule="evenodd"></path><path id="path3" d="M181.757 1.405 C 182.208 1.473,182.945 1.473,183.395 1.405 C 183.846 1.336,183.477 1.281,182.576 1.281 C 181.675 1.281,181.307 1.336,181.757 1.405 M188.612 1.405 C 189.064 1.474,189.735 1.472,190.101 1.401 C 190.467 1.330,190.097 1.274,189.278 1.277 C 188.459 1.279,188.159 1.337,188.612 1.405 M220.700 13.254 C 221.590 14.155,222.385 14.892,222.467 14.892 C 222.549 14.892,221.888 14.155,220.998 13.254 C 220.108 12.353,219.313 11.616,219.231 11.616 C 219.149 11.616,219.810 12.353,220.700 13.254 M146.835 15.041 C 146.112 15.778,145.587 16.381,145.669 16.381 C 145.751 16.381,146.410 15.778,147.133 15.041 C 147.857 14.304,148.382 13.701,148.300 13.701 C 148.218 13.701,147.559 14.304,146.835 15.041 M155.781 31.695 C 156.781 32.661,161.876 35.640,166.046 37.695 C 185.503 47.285,203.225 45.452,213.859 32.752 L 215.096 31.273 185.221 31.273 C 159.444 31.273,155.405 31.331,155.781 31.695 M177.444 55.912 C 177.979 55.978,178.783 55.977,179.231 55.909 C 179.678 55.841,179.241 55.787,178.258 55.788 C 177.275 55.790,176.909 55.846,177.444 55.912 M183.401 55.912 C 183.936 55.978,184.740 55.977,185.188 55.909 C 185.635 55.841,185.197 55.787,184.214 55.788 C 183.232 55.790,182.865 55.846,183.401 55.912 M177.141 57.103 C 177.673 57.169,178.544 57.169,179.077 57.103 C 179.609 57.037,179.173 56.983,178.109 56.983 C 177.044 56.983,176.608 57.037,177.141 57.103 M183.699 57.103 C 184.234 57.170,185.038 57.168,185.486 57.100 C 185.933 57.032,185.495 56.978,184.512 56.980 C 183.529 56.982,183.163 57.037,183.699 57.103 M196.962 80.119 C 196.962 81.020,197.018 81.389,197.086 80.938 C 197.154 80.488,197.154 79.751,197.086 79.300 C 197.018 78.850,196.962 79.218,196.962 80.119 M196.962 87.267 C 196.962 88.168,197.018 88.537,197.086 88.086 C 197.154 87.636,197.154 86.899,197.086 86.448 C 197.018 85.998,196.962 86.366,196.962 87.267 M184.432 98.585 C 184.432 99.159,184.494 99.393,184.569 99.106 C 184.644 98.820,184.644 98.351,184.569 98.064 C 184.494 97.777,184.432 98.012,184.432 98.585 M184.773 105.287 C 184.773 107.089,184.822 107.787,184.882 106.839 C 184.941 105.892,184.940 104.417,184.880 103.563 C 184.820 102.709,184.772 103.485,184.773 105.287 M184.432 111.988 C 184.432 112.561,184.494 112.796,184.569 112.509 C 184.644 112.223,184.644 111.754,184.569 111.467 C 184.494 111.180,184.432 111.415,184.432 111.988 M184.106 114.743 C 184.071 115.457,184.171 115.557,184.885 115.522 C 185.559 115.488,185.588 115.459,185.052 115.354 C 184.676 115.281,184.346 114.952,184.273 114.576 C 184.169 114.039,184.139 114.069,184.106 114.743 M194.281 114.891 C 195.723 114.945,198.001 114.945,199.344 114.890 C 200.688 114.835,199.509 114.790,196.724 114.791 C 193.939 114.791,192.840 114.836,194.281 114.891 M187.714 115.172 C 188.001 115.247,188.470 115.247,188.757 115.172 C 189.043 115.097,188.809 115.036,188.235 115.036 C 187.662 115.036,187.427 115.097,187.714 115.172 M194.118 116.082 C 195.469 116.137,197.681 116.137,199.032 116.082 C 200.383 116.026,199.278 115.981,196.575 115.981 C 193.872 115.981,192.766 116.026,194.118 116.082 M187.866 116.369 C 188.237 116.440,188.773 116.437,189.058 116.362 C 189.343 116.288,189.039 116.230,188.384 116.233 C 187.729 116.236,187.496 116.297,187.866 116.369 M204.393 116.363 C 204.680 116.438,205.149 116.438,205.436 116.363 C 205.722 116.288,205.488 116.227,204.914 116.227 C 204.341 116.227,204.106 116.288,204.393 116.363 M366.573 118.756 C 367.108 118.823,367.912 118.821,368.360 118.753 C 368.807 118.685,368.369 118.631,367.386 118.633 C 366.404 118.635,366.037 118.690,366.573 118.756 M363.898 135.603 C 354.834 151.483,355.391 170.439,365.374 185.853 C 367.968 189.858,373.927 197.133,374.304 196.756 C 374.475 196.585,365.702 133.658,365.467 133.369 C 365.372 133.253,364.666 134.258,363.898 135.603 M268.057 145.197 C 268.946 146.098,269.741 146.835,269.823 146.835 C 269.905 146.835,269.244 146.098,268.354 145.197 C 267.465 144.296,266.670 143.559,266.588 143.559 C 266.506 143.559,267.167 144.296,268.057 145.197 M344.081 152.048 C 344.084 152.703,344.145 152.936,344.217 152.565 C 344.288 152.195,344.285 151.659,344.211 151.374 C 344.136 151.089,344.078 151.392,344.081 152.048 M26.582 152.700 C 26.869 152.775,27.338 152.775,27.625 152.700 C 27.911 152.625,27.677 152.564,27.103 152.564 C 26.530 152.564,26.296 152.625,26.582 152.700 M28.965 152.700 C 29.252 152.775,29.721 152.775,30.007 152.700 C 30.294 152.625,30.060 152.564,29.486 152.564 C 28.913 152.564,28.678 152.625,28.965 152.700 M41.847 159.047 C 42.819 160.030,43.682 160.834,43.764 160.834 C 43.846 160.834,43.117 160.030,42.144 159.047 C 41.172 158.064,40.309 157.260,40.227 157.260 C 40.145 157.260,40.874 158.064,41.847 159.047 M14.280 158.972 L 13.254 160.089 14.371 159.063 C 15.410 158.108,15.625 157.856,15.397 157.856 C 15.347 157.856,14.845 158.358,14.280 158.972 M342.896 161.132 C 342.896 161.869,342.954 162.171,343.025 161.802 C 343.096 161.433,343.096 160.830,343.025 160.462 C 342.954 160.093,342.896 160.395,342.896 161.132 M344.081 160.983 C 344.084 161.638,344.145 161.871,344.217 161.501 C 344.288 161.130,344.285 160.594,344.211 160.309 C 344.136 160.024,344.078 160.328,344.081 160.983 M238.570 161.637 C 205.571 165.171,191.701 206.694,215.645 230.268 C 234.533 248.864,265.435 243.102,276.998 218.829 C 290.146 191.227,268.137 158.470,238.570 161.637 M398.282 163.812 C 398.282 164.386,398.343 164.620,398.418 164.334 C 398.493 164.047,398.493 163.578,398.418 163.291 C 398.343 163.004,398.282 163.239,398.282 163.812 M249.483 166.912 C 275.693 172.490,285.705 205.678,267.110 225.342 C 247.025 246.582,212.055 233.988,209.044 204.431 C 206.703 181.449,227.430 162.219,249.483 166.912 M146.939 167.127 C 120.079 169.731,103.791 199.408,115.588 224.248 C 128.742 251.945,166.128 254.817,182.790 229.411 C 201.063 201.548,179.436 163.976,146.939 167.127 M28.301 170.216 C 28.270 172.159,30.076 221.545,30.266 223.957 L 30.441 226.171 31.477 224.552 C 42.805 206.849,41.992 184.510,29.504 170.365 L 28.320 169.025 28.301 170.216 M154.748 172.173 C 180.079 175.697,192.613 205.650,177.756 227.157 C 163.205 248.219,131.287 245.566,120.021 222.358 C 107.906 197.400,127.943 168.445,154.748 172.173 M398.282 174.237 C 398.282 174.810,398.343 175.045,398.418 174.758 C 398.493 174.471,398.493 174.002,398.418 173.716 C 398.343 173.429,398.282 173.663,398.282 174.237 M290.320 175.341 C 290.689 175.411,291.292 175.411,291.660 175.341 C 292.029 175.270,291.727 175.211,290.990 175.211 C 290.253 175.211,289.952 175.270,290.320 175.341 M299.856 175.346 C 300.392 175.412,301.196 175.411,301.643 175.343 C 302.091 175.275,301.653 175.221,300.670 175.223 C 299.687 175.224,299.321 175.280,299.856 175.346 M127.308 182.651 L 126.433 183.619 127.401 182.744 C 127.934 182.263,128.369 181.827,128.369 181.776 C 128.369 181.546,128.124 181.748,127.308 182.651 M318.168 181.888 C 318.455 181.963,318.924 181.963,319.211 181.888 C 319.497 181.813,319.263 181.752,318.690 181.752 C 318.116 181.752,317.882 181.813,318.168 181.888 M326.806 181.888 C 327.092 181.963,327.561 181.963,327.848 181.888 C 328.135 181.813,327.900 181.752,327.327 181.752 C 326.754 181.752,326.519 181.813,326.806 181.888 M240.357 186.541 C 240.357 186.593,240.793 187.028,241.325 187.509 L 242.293 188.384 241.419 187.416 C 240.603 186.514,240.357 186.311,240.357 186.541 M160.759 188.743 C 161.128 188.814,161.731 188.814,162.100 188.743 C 162.468 188.672,162.167 188.614,161.430 188.614 C 160.692 188.614,160.391 188.672,160.759 188.743 M188.251 190.507 C 192.052 199.374,192.185 210.224,188.630 221.370 C 188.474 221.859,189.046 221.891,197.851 221.891 L 207.238 221.891 206.071 219.511 C 201.785 210.765,200.511 196.888,203.323 189.560 C 203.465 189.190,202.363 189.129,195.575 189.129 L 187.661 189.129 188.251 190.507 M54.923 196.873 C 54.923 199.412,54.968 200.450,55.024 199.181 C 55.080 197.911,55.080 195.834,55.024 194.564 C 54.968 193.295,54.923 194.334,54.923 196.873 M56.115 197.022 C 56.115 199.643,56.161 200.675,56.216 199.316 C 56.271 197.956,56.271 195.812,56.215 194.550 C 56.159 193.288,56.114 194.401,56.115 197.022 M1.299 196.873 C 1.299 198.429,1.349 199.066,1.410 198.287 C 1.472 197.509,1.472 196.236,1.410 195.458 C 1.349 194.680,1.299 195.316,1.299 196.873 M75.577 196.200 C 76.601 196.258,78.276 196.258,79.300 196.200 C 80.324 196.142,79.486 196.094,77.439 196.094 C 75.391 196.094,74.553 196.142,75.577 196.200 M387.621 201.415 L 386.746 202.383 387.714 201.508 C 388.616 200.693,388.819 200.447,388.589 200.447 C 388.538 200.447,388.102 200.882,387.621 201.415 M1.558 203.127 C 1.558 203.701,1.620 203.935,1.695 203.649 C 1.769 203.362,1.769 202.893,1.695 202.606 C 1.620 202.319,1.558 202.554,1.558 203.127 M294.654 204.617 C 294.654 205.517,294.709 205.886,294.778 205.436 C 294.846 204.985,294.846 204.248,294.778 203.797 C 294.709 203.347,294.654 203.716,294.654 204.617 M97.191 205.212 C 97.191 206.277,97.245 206.713,97.312 206.180 C 97.378 205.648,97.378 204.777,97.312 204.244 C 97.245 203.712,97.191 204.147,97.191 205.212 M98.409 208.488 C 98.409 211.191,98.454 212.297,98.509 210.946 C 98.564 209.594,98.564 207.383,98.509 206.031 C 98.454 204.680,98.409 205.786,98.409 208.488 M82.130 205.125 C 82.498 205.196,83.101 205.196,83.470 205.125 C 83.838 205.054,83.537 204.995,82.800 204.995 C 82.063 204.995,81.761 205.054,82.130 205.125 M86.895 205.125 C 87.264 205.196,87.867 205.196,88.235 205.125 C 88.604 205.054,88.302 204.995,87.565 204.995 C 86.828 204.995,86.526 205.054,86.895 205.125 M182.969 206.701 C 182.969 207.766,183.024 208.202,183.090 207.669 C 183.156 207.137,183.156 206.266,183.090 205.733 C 183.024 205.201,182.969 205.637,182.969 206.701 M374.007 206.916 C 374.535 206.982,375.474 206.983,376.092 206.919 C 376.710 206.854,376.277 206.800,375.130 206.799 C 373.984 206.798,373.478 206.851,374.007 206.916 M294.657 212.211 C 294.658 213.194,294.714 213.561,294.780 213.025 C 294.847 212.490,294.845 211.686,294.777 211.238 C 294.709 210.791,294.655 211.229,294.657 212.211 M41.828 235.071 L 40.953 236.039 41.921 235.164 C 42.823 234.349,43.026 234.103,42.796 234.103 C 42.745 234.103,42.309 234.538,41.828 235.071 M27.625 241.461 C 27.993 241.532,28.596 241.532,28.965 241.461 C 29.334 241.390,29.032 241.332,28.295 241.332 C 27.558 241.332,27.256 241.390,27.625 241.461 M228.444 297.260 C 225.662 298.195,220.176 299.613,216.307 300.397 L 215.637 300.533 215.637 318.838 L 215.637 337.144 216.857 337.766 C 218.360 338.533,218.129 338.837,219.372 334.445 C 221.165 328.107,222.449 325.332,224.731 322.864 C 226.736 320.696,226.707 320.209,224.465 318.425 C 218.500 313.679,217.391 307.882,221.601 303.456 C 223.653 301.299,225.545 302.418,227.892 307.177 C 228.430 308.267,228.948 309.159,229.044 309.159 C 229.140 309.159,229.934 306.445,230.808 303.127 C 231.682 299.810,232.462 296.862,232.540 296.575 C 232.734 295.869,232.438 295.918,228.444 297.260 M164.515 297.737 C 164.913 299.054,169.173 315.371,169.173 315.576 C 169.173 315.701,169.687 315.012,170.314 314.045 C 173.151 309.668,175.772 308.138,180.142 308.308 L 182.874 308.414 182.874 304.920 C 182.874 301.534,182.853 301.422,182.204 301.295 C 181.835 301.223,179.523 300.800,177.066 300.355 C 173.341 299.681,168.201 298.421,165.049 297.410 C 164.459 297.221,164.375 297.273,164.515 297.737 M188.462 300.732 C 188.833 300.803,189.369 300.800,189.654 300.726 C 189.938 300.651,189.635 300.593,188.980 300.596 C 188.325 300.600,188.092 300.661,188.462 300.732 M203.797 300.727 C 204.084 300.801,204.553 300.801,204.840 300.727 C 205.127 300.652,204.892 300.590,204.319 300.590 C 203.745 300.590,203.511 300.652,203.797 300.727 M194.713 301.040 C 195.737 301.098,197.413 301.098,198.436 301.040 C 199.460 300.981,198.622 300.934,196.575 300.934 C 194.527 300.934,193.690 300.981,194.713 301.040 M222.463 304.468 C 219.230 307.836,219.937 312.379,224.328 316.444 C 226.946 318.868,226.661 318.979,227.637 315.150 L 228.463 311.909 227.860 310.379 C 225.753 305.035,223.884 302.987,222.463 304.468 M176.645 309.802 C 175.327 310.181,172.306 313.220,170.853 315.630 L 169.734 317.484 170.505 320.379 C 170.928 321.971,171.322 323.320,171.380 323.378 C 171.548 323.546,177.111 320.271,180.045 318.277 L 182.725 316.456 182.809 313.148 L 182.893 309.841 181.053 309.649 C 178.741 309.407,177.921 309.436,176.645 309.802 M248.447 313.795 C 242.887 315.291,235.501 319.578,227.476 325.968 C 225.715 327.370,224.276 328.350,224.278 328.146 C 224.279 327.941,224.476 327.043,224.713 326.149 C 225.266 324.072,225.144 323.992,223.985 325.676 C 222.485 327.856,219.211 336.587,219.211 338.406 C 219.211 338.963,222.226 340.198,227.401 341.758 C 246.307 347.457,257.044 342.141,258.534 326.343 C 259.489 316.218,255.924 311.784,248.447 313.795 M180.063 319.898 C 178.599 320.875,176.153 322.377,174.628 323.235 C 173.102 324.093,171.854 324.952,171.854 325.143 C 171.854 325.335,172.452 327.741,173.182 330.492 C 173.913 333.242,174.483 335.519,174.448 335.553 C 174.414 335.587,173.270 334.704,171.907 333.590 C 170.543 332.477,168.822 331.131,168.082 330.600 L 166.736 329.633 167.232 330.593 C 168.027 332.130,167.572 331.941,166.201 330.164 C 165.503 329.259,164.747 328.518,164.521 328.518 C 164.295 328.518,164.110 328.349,164.110 328.141 C 164.110 327.814,161.996 326.386,158.079 324.067 C 156.679 323.239,156.678 323.234,158.343 326.313 C 159.315 328.110,159.799 328.750,159.977 328.470 C 160.158 328.183,160.230 328.260,160.234 328.742 C 160.242 329.942,159.733 329.460,157.831 326.464 C 155.669 323.058,155.787 323.072,153.490 325.940 C 152.550 327.112,151.653 328.206,151.495 328.369 C 150.918 328.968,152.638 326.237,153.889 324.569 C 155.449 322.488,155.467 322.761,153.712 322.006 C 144.183 317.906,139.663 321.198,140.067 331.943 C 140.792 351.220,156.411 356.299,180.864 345.210 L 182.874 344.298 182.874 331.196 C 182.874 323.990,182.841 318.100,182.800 318.108 C 182.759 318.115,181.527 318.921,180.063 319.898 " stroke="none" fill="#54212b" fill-rule="evenodd"></path><path id="path4" d="M238.049 161.635 C 238.336 161.710,238.805 161.710,239.092 161.635 C 239.378 161.560,239.144 161.499,238.570 161.499 C 237.997 161.499,237.762 161.560,238.049 161.635 M147.655 167.001 C 148.023 167.072,148.626 167.072,148.995 167.001 C 149.363 166.930,149.062 166.872,148.325 166.872 C 147.587 166.872,147.286 166.930,147.655 167.001 M152.122 167.001 C 152.491 167.072,153.094 167.072,153.462 167.001 C 153.831 166.930,153.529 166.872,152.792 166.872 C 152.055 166.872,151.754 166.930,152.122 167.001 M268.801 172.450 C 269.774 173.433,270.637 174.237,270.719 174.237 C 270.800 174.237,270.072 173.433,269.099 172.450 C 268.126 171.467,267.264 170.663,267.182 170.663 C 267.100 170.663,267.829 171.467,268.801 172.450 M265.376 177.066 C 266.266 177.967,267.061 178.704,267.143 178.704 C 267.225 178.704,266.564 177.967,265.674 177.066 C 264.784 176.165,263.989 175.428,263.907 175.428 C 263.825 175.428,264.486 176.165,265.376 177.066 M123.299 178.332 L 120.774 180.938 123.380 178.413 C 125.801 176.068,126.122 175.726,125.906 175.726 C 125.861 175.726,124.688 176.899,123.299 178.332 M176.024 176.768 C 176.580 177.342,177.101 177.811,177.183 177.811 C 177.265 177.811,176.877 177.342,176.322 176.768 C 175.766 176.195,175.244 175.726,175.162 175.726 C 175.080 175.726,175.468 176.195,176.024 176.768 M219.790 177.141 L 218.764 178.258 219.881 177.231 C 220.495 176.667,220.998 176.164,220.998 176.114 C 220.998 175.887,220.746 176.101,219.790 177.141 M179.002 179.747 C 179.558 180.320,180.080 180.789,180.162 180.789 C 180.243 180.789,179.856 180.320,179.300 179.747 C 178.744 179.173,178.223 178.704,178.141 178.704 C 178.059 178.704,178.447 179.173,179.002 179.747 M208.042 182.278 C 207.788 182.770,207.647 183.172,207.729 183.172 C 207.810 183.172,208.085 182.770,208.340 182.278 C 208.594 181.787,208.735 181.385,208.653 181.385 C 208.571 181.385,208.296 181.787,208.042 182.278 M231.193 189.427 C 231.193 190.000,231.255 190.235,231.330 189.948 C 231.405 189.661,231.405 189.192,231.330 188.905 C 231.255 188.619,231.193 188.853,231.193 189.427 M245.506 197.915 C 245.508 198.734,245.566 199.034,245.634 198.581 C 245.703 198.128,245.701 197.458,245.630 197.092 C 245.560 196.726,245.504 197.096,245.506 197.915 M203.506 198.362 C 203.506 199.099,203.564 199.401,203.635 199.032 C 203.706 198.663,203.706 198.060,203.635 197.692 C 203.564 197.323,203.506 197.625,203.506 198.362 M210.078 201.042 C 210.078 202.271,210.130 202.774,210.195 202.159 C 210.259 201.545,210.259 200.540,210.195 199.926 C 210.130 199.311,210.078 199.814,210.078 201.042 M280.968 201.638 C 280.968 203.031,281.019 203.600,281.082 202.904 C 281.145 202.208,281.145 201.069,281.082 200.372 C 281.019 199.676,280.968 200.246,280.968 201.638 M190.991 202.978 C 190.994 203.634,191.055 203.867,191.127 203.496 C 191.198 203.126,191.195 202.590,191.121 202.305 C 191.046 202.020,190.988 202.323,190.991 202.978 M203.500 204.170 C 203.504 204.825,203.565 205.058,203.636 204.688 C 203.707 204.317,203.704 203.781,203.630 203.496 C 203.555 203.211,203.497 203.515,203.500 204.170 M189.537 206.999 C 189.537 208.719,189.586 209.423,189.646 208.563 C 189.706 207.703,189.706 206.296,189.646 205.436 C 189.586 204.576,189.537 205.279,189.537 206.999 M111.482 206.701 C 111.482 207.602,111.537 207.971,111.606 207.520 C 111.674 207.070,111.674 206.333,111.606 205.882 C 111.537 205.432,111.482 205.800,111.482 206.701 M190.985 209.680 C 190.985 210.253,191.046 210.488,191.121 210.201 C 191.196 209.914,191.196 209.445,191.121 209.159 C 191.046 208.872,190.985 209.106,190.985 209.680 M230.752 212.571 C 231.121 212.642,231.724 212.642,232.092 212.571 C 232.461 212.500,232.159 212.442,231.422 212.442 C 230.685 212.442,230.383 212.500,230.752 212.571 M276.603 219.661 C 276.331 220.233,276.169 220.700,276.244 220.700 C 276.448 220.700,277.352 218.876,277.216 218.740 C 277.151 218.675,276.876 219.090,276.603 219.661 M188.235 221.966 C 188.235 222.089,192.558 222.160,197.841 222.125 C 207.471 222.062,206.387 221.960,194.564 221.818 C 191.083 221.777,188.235 221.843,188.235 221.966 M115.264 224.090 C 115.264 224.410,116.151 226.061,116.322 226.061 C 116.404 226.061,116.249 225.625,115.979 225.093 C 115.426 224.006,115.264 223.779,115.264 224.090 M214.147 229.133 C 214.147 229.184,214.583 229.620,215.115 230.101 L 216.083 230.975 215.209 230.007 C 214.393 229.105,214.147 228.903,214.147 229.133 M172.882 230.901 L 171.705 232.167 172.971 230.989 C 174.148 229.895,174.374 229.635,174.148 229.635 C 174.100 229.635,173.530 230.205,172.882 230.901 M178.986 234.326 L 177.960 235.443 179.077 234.417 C 180.116 233.461,180.331 233.209,180.103 233.209 C 180.053 233.209,179.551 233.712,178.986 234.326 M123.306 235.741 C 124.196 236.642,124.991 237.379,125.073 237.379 C 125.155 237.379,124.494 236.642,123.604 235.741 C 122.714 234.840,121.919 234.103,121.837 234.103 C 121.755 234.103,122.416 234.840,123.306 235.741 M176.306 237.007 L 175.279 238.124 176.396 237.097 C 177.010 236.533,177.513 236.030,177.513 235.980 C 177.513 235.753,177.261 235.967,176.306 237.007 M241.028 241.468 C 241.642 241.532,242.647 241.532,243.261 241.468 C 243.876 241.404,243.373 241.351,242.144 241.351 C 240.916 241.351,240.413 241.404,241.028 241.468 M149.745 247.126 C 150.280 247.192,151.084 247.191,151.532 247.123 C 151.979 247.055,151.541 247.001,150.558 247.002 C 149.576 247.004,149.209 247.059,149.745 247.126 " stroke="none" fill="#888484" fill-rule="evenodd"></path><path id="path5" d="M242.815 158.359 C 243.101 158.434,243.570 158.434,243.857 158.359 C 244.144 158.284,243.909 158.222,243.336 158.222 C 242.762 158.222,242.528 158.284,242.815 158.359 " stroke="none" fill="#c46974" fill-rule="evenodd"></path><path id="path6" d="M241.480 161.348 C 242.015 161.414,242.819 161.413,243.267 161.345 C 243.714 161.277,243.276 161.222,242.293 161.224 C 241.310 161.226,240.944 161.281,241.480 161.348 M242.219 167.592 C 242.506 167.667,242.975 167.667,243.261 167.592 C 243.548 167.517,243.313 167.456,242.740 167.456 C 242.167 167.456,241.932 167.517,242.219 167.592 M215.025 172.673 L 213.999 173.790 215.115 172.764 C 215.730 172.199,216.232 171.696,216.232 171.647 C 216.232 171.419,215.980 171.634,215.025 172.673 M149.447 173.261 C 149.982 173.328,150.786 173.326,151.234 173.258 C 151.681 173.190,151.243 173.136,150.261 173.138 C 149.278 173.139,148.912 173.195,149.447 173.261 M157.925 195.086 C 157.925 195.659,157.986 195.894,158.061 195.607 C 158.136 195.320,158.136 194.851,158.061 194.564 C 157.986 194.278,157.925 194.512,157.925 195.086 M275.302 201.191 C 275.304 202.338,275.358 202.771,275.422 202.153 C 275.487 201.535,275.486 200.597,275.420 200.068 C 275.354 199.539,275.301 200.045,275.302 201.191 M147.218 203.276 C 147.221 204.095,147.279 204.395,147.347 203.942 C 147.415 203.490,147.414 202.819,147.343 202.453 C 147.272 202.087,147.216 202.457,147.218 203.276 M191.020 206.404 C 191.020 207.796,191.071 208.366,191.134 207.669 C 191.197 206.973,191.197 205.834,191.134 205.138 C 191.071 204.442,191.020 205.011,191.020 206.404 M108.814 206.552 C 108.815 207.863,108.867 208.362,108.930 207.662 C 108.993 206.961,108.992 205.889,108.928 205.279 C 108.864 204.669,108.813 205.242,108.814 206.552 M197.740 223.306 C 205.321 223.367,208.113 223.484,208.463 223.757 C 208.880 224.082,208.888 224.065,208.526 223.604 C 208.149 223.123,207.322 223.088,197.804 223.153 L 187.491 223.223 197.740 223.306 M269.088 230.305 L 267.610 231.869 269.173 230.391 C 270.034 229.578,270.737 228.874,270.737 228.827 C 270.737 228.605,270.461 228.852,269.088 230.305 M272.066 231.199 L 270.588 232.762 272.152 231.284 C 273.605 229.911,273.852 229.635,273.630 229.635 C 273.583 229.635,272.879 230.339,272.066 231.199 M121.209 236.858 C 122.443 238.173,122.710 238.409,122.710 238.186 C 122.710 238.138,122.074 237.501,121.296 236.771 L 119.881 235.443 121.209 236.858 M178.391 237.007 L 177.364 238.124 178.481 237.097 C 179.095 236.533,179.598 236.030,179.598 235.980 C 179.598 235.753,179.346 235.967,178.391 237.007 M241.930 243.257 C 242.713 243.319,243.919 243.318,244.611 243.256 C 245.302 243.193,244.661 243.143,243.187 243.144 C 241.713 243.145,241.147 243.196,241.930 243.257 M149.297 248.911 C 149.749 248.979,150.420 248.977,150.786 248.907 C 151.152 248.836,150.782 248.780,149.963 248.782 C 149.144 248.784,148.844 248.842,149.297 248.911 " stroke="none" fill="#c87c84" fill-rule="evenodd"></path><path id="path7" d="" stroke="none" fill="#a06068" fill-rule="evenodd"></path><path id="path8" d="M241.028 158.359 C 241.314 158.434,241.783 158.434,242.070 158.359 C 242.357 158.284,242.122 158.222,241.549 158.222 C 240.975 158.222,240.741 158.284,241.028 158.359 M244.602 158.359 C 244.888 158.434,245.357 158.434,245.644 158.359 C 245.931 158.284,245.696 158.222,245.123 158.222 C 244.550 158.222,244.315 158.284,244.602 158.359 M187.004 187.719 C 187.129 187.844,190.976 187.911,195.552 187.867 L 203.872 187.788 195.324 187.639 C 190.622 187.558,186.878 187.593,187.004 187.719 M214.445 231.571 C 215.001 232.144,215.523 232.614,215.605 232.614 C 215.686 232.614,215.299 232.144,214.743 231.571 C 214.187 230.998,213.666 230.529,213.584 230.529 C 213.502 230.529,213.890 230.998,214.445 231.571 " stroke="none" fill="#b93444" fill-rule="evenodd"></path></g></svg>